<?xml version="1.0" encoding="UTF-8" standalone="no"?>
<!-- Created with Inkscape (http://www.inkscape.org/) -->

<svg
   width="15.239202mm"
   height="15.300068mm"
   viewBox="0 0 15.239202 15.300068"
   version="1.1"
   id="svg1"
   inkscape:version="1.3.2 (091e20e, 2023-11-25, custom)"
   sodipodi:docname="ÄGD.svg"
   xml:space="preserve"
   xmlns:inkscape="http://www.inkscape.org/namespaces/inkscape"
   xmlns:sodipodi="http://sodipodi.sourceforge.net/DTD/sodipodi-0.dtd"
   xmlns="http://www.w3.org/2000/svg"
   xmlns:svg="http://www.w3.org/2000/svg"><sodipodi:namedview
     id="namedview1"
     pagecolor="#ffffff"
     bordercolor="#000000"
     borderopacity="0.25"
     inkscape:showpageshadow="2"
     inkscape:pageopacity="0.0"
     inkscape:pagecheckerboard="0"
     inkscape:deskcolor="#d1d1d1"
     inkscape:document-units="mm"
     inkscape:zoom="0.69219276"
     inkscape:cx="267.98893"
     inkscape:cy="452.90852"
     inkscape:window-width="1920"
     inkscape:window-height="991"
     inkscape:window-x="-9"
     inkscape:window-y="-9"
     inkscape:window-maximized="1"
     inkscape:current-layer="layer1"
     showgrid="false" /><defs
     id="defs1" /><g
     inkscape:label="Lager 1"
     inkscape:groupmode="layer"
     id="layer1"
     transform="translate(-124.30715,-198.56469)"><path
       style="fill:#522504;fill-opacity:1"
       d="m 124.32631,213.58726 c -0.0816,-0.21275 0.10518,-1.32947 0.41515,-2.48159 l 0.5636,-2.09477 5.06751,-5.09316 c 5.41512,-5.44251 5.92285,-5.78231 7.60124,-5.0871 1.10872,0.45925 1.57255,1.23111 1.57255,2.61691 0,1.18193 -0.002,1.1847 -5.08131,6.28812 -4.73301,4.7557 -5.18187,5.13517 -6.54844,5.53601 -2.28086,0.66902 -3.41638,0.76883 -3.5903,0.31558 z m 8.8039,-6.9315 c 3.38178,-3.34998 4.82865,-4.95964 4.82865,-5.37193 0,-0.73632 -0.87612,-1.25512 -1.52136,-0.90088 -0.81998,0.45017 -9.8556,9.7062 -9.85934,10.09984 -0.002,0.20911 -0.0734,0.6406 -0.1588,0.95888 -0.14902,0.55567 -0.11468,0.56712 0.86351,0.28801 0.79258,-0.22616 2.09049,-1.3524 5.84734,-5.07392 z"
       id="path1"
       sodipodi:nodetypes="sscssscsssssscss" /></g></svg>
