<?xml version="1.0" encoding="UTF-8" standalone="no"?>
<!-- Created with Inkscape (http://www.inkscape.org/) -->

<svg
   width="16.274195mm"
   height="17.995188mm"
   viewBox="0 0 16.274195 17.995188"
   version="1.1"
   id="svg1"
   inkscape:version="1.3.2 (091e20e, 2023-11-25, custom)"
   sodipodi:docname="ÄGD.svg"
   xml:space="preserve"
   xmlns:inkscape="http://www.inkscape.org/namespaces/inkscape"
   xmlns:sodipodi="http://sodipodi.sourceforge.net/DTD/sodipodi-0.dtd"
   xmlns="http://www.w3.org/2000/svg"
   xmlns:svg="http://www.w3.org/2000/svg"><sodipodi:namedview
     id="namedview1"
     pagecolor="#ffffff"
     bordercolor="#000000"
     borderopacity="0.25"
     inkscape:showpageshadow="2"
     inkscape:pageopacity="0.0"
     inkscape:pagecheckerboard="0"
     inkscape:deskcolor="#d1d1d1"
     inkscape:document-units="mm"
     inkscape:zoom="0.69219276"
     inkscape:cx="267.98893"
     inkscape:cy="452.90852"
     inkscape:window-width="1920"
     inkscape:window-height="991"
     inkscape:window-x="-9"
     inkscape:window-y="-9"
     inkscape:window-maximized="1"
     inkscape:current-layer="layer1"
     showgrid="false" /><defs
     id="defs1" /><g
     inkscape:label="Lager 1"
     inkscape:groupmode="layer"
     id="layer1"
     transform="translate(-14.640334,-136.76464)"><path
       style="fill:#261292;fill-opacity:1"
       d="m 17.514887,154.38709 c -1.225638,-0.67932 -1.332653,-1.24417 -1.342664,-7.08685 -0.0092,-5.39125 -0.01773,-5.47295 -0.577667,-5.55625 -0.806326,-0.11997 -1.215145,-0.85258 -0.773032,-1.38529 0.250795,-0.30219 0.81836,-0.41905 2.035178,-0.41905 1.369894,0 1.687395,-0.0796 1.687395,-0.42304 0,-0.7945 0.818217,-2.14901 1.480409,-2.45072 0.363636,-0.16568 1.613967,-0.30124 2.778513,-0.30124 2.769416,0 3.575721,0.40158 4.001325,1.99287 l 0.316172,1.18213 h 1.632519 c 1.166749,0 1.731744,0.11956 1.980302,0.41905 0.442113,0.53271 0.03329,1.26532 -0.773031,1.38529 -0.560082,0.0833 -0.568292,0.16282 -0.568292,5.50324 0,5.73386 -0.160645,6.62247 -1.308261,7.23666 -0.785935,0.42061 -9.78402,0.3382 -10.568866,-0.0968 z m 10.025044,-7.03911 v -5.55625 h -4.7625 -4.7625 v 5.55625 5.55625 h 4.7625 4.7625 z m -6.822107,3.21586 c -0.251843,-0.15979 -0.320338,-0.99781 -0.264583,-3.23709 l 0.07523,-3.02148 h 0.661459 c 0.660304,0 0.66159,0.005 0.736838,2.87218 0.08505,3.24077 -0.196316,4.02892 -1.208944,3.38639 z m 3.141103,-0.14524 c -0.201598,-0.24291 -0.280462,-1.35023 -0.230835,-3.24115 0.07525,-2.86717 0.07654,-2.87218 0.736839,-2.87218 h 0.661458 l 0.07523,3.02148 c 0.05576,2.23928 -0.01274,3.0773 -0.264584,3.23709 -0.473582,0.3005 -0.627099,0.2777 -0.97811,-0.14524 z m 1.25201,-11.07427 c -0.08011,-0.56403 -0.202693,-0.59531 -2.333506,-0.59531 -2.130813,0 -2.2534,0.0313 -2.333506,0.59531 -0.08239,0.58011 -0.02277,0.59532 2.333506,0.59532 2.356274,0 2.415894,-0.0152 2.333506,-0.59532 z"
       id="path4" /></g></svg>
