<?xml version="1.0" encoding="UTF-8" standalone="no"?>
<!-- Created with Inkscape (http://www.inkscape.org/) -->

<svg
   width="35.870228mm"
   height="35.711388mm"
   viewBox="0 0 35.870228 35.711388"
   version="1.1"
   id="svg1"
   inkscape:version="1.3.2 (091e20e, 2023-11-25, custom)"
   sodipodi:docname="ÄGD.svg"
   xml:space="preserve"
   xmlns:inkscape="http://www.inkscape.org/namespaces/inkscape"
   xmlns:sodipodi="http://sodipodi.sourceforge.net/DTD/sodipodi-0.dtd"
   xmlns="http://www.w3.org/2000/svg"
   xmlns:svg="http://www.w3.org/2000/svg"><sodipodi:namedview
     id="namedview1"
     pagecolor="#ffffff"
     bordercolor="#000000"
     borderopacity="0.25"
     inkscape:showpageshadow="2"
     inkscape:pageopacity="0.0"
     inkscape:pagecheckerboard="0"
     inkscape:deskcolor="#d1d1d1"
     inkscape:document-units="mm"
     inkscape:zoom="0.69219276"
     inkscape:cx="267.98893"
     inkscape:cy="452.90852"
     inkscape:window-width="1920"
     inkscape:window-height="991"
     inkscape:window-x="-9"
     inkscape:window-y="-9"
     inkscape:window-maximized="1"
     inkscape:current-layer="layer1"
     showgrid="false" /><defs
     id="defs1" /><g
     inkscape:label="Lager 1"
     inkscape:groupmode="layer"
     id="layer1"
     transform="translate(-98.841296,-137.77649)"><path
       style="fill:#261292;fill-opacity:1"
       d="m 101.42463,172.81342 c -0.66956,-0.4013 -1.41527,-1.17263 -1.852093,-1.91572 l -0.73124,-1.24395 v -12.30312 c 0,-12.2374 0.003,-12.30905 0.59287,-13.41228 0.709443,-1.32722 1.932923,-2.30569 3.375883,-2.69985 1.69037,-0.46173 12.41356,-0.38535 13.34254,0.0951 1.50003,0.7757 1.47394,2.54258 -0.0575,3.89558 -0.0307,0.0271 -2.91334,0.11642 -6.40584,0.19843 l -6.35,0.14911 -0.069,11.47885 c -0.0496,8.25459 0.0152,11.58032 0.23083,11.8401 0.24472,0.29487 2.35638,0.36126 11.49057,0.36126 6.15492,0 11.37909,-0.0723 11.60927,-0.1606 0.36443,-0.13984 0.41852,-0.92799 0.41852,-6.09856 0,-7.22844 0.16568,-7.76376 2.40289,-7.76376 0.97261,0 1.75129,0.76424 1.97078,1.93422 0.0934,0.49797 0.12914,3.51094 0.0794,6.69548 -0.0786,5.03159 -0.1551,5.9114 -0.58387,6.71614 -0.69397,1.30244 -1.20933,1.83372 -2.33729,2.4094 -0.92252,0.47084 -1.7352,0.50086 -13.49375,0.49851 l -12.5121,-0.002 z m 7.95269,-8.89815 c -1.22526,-0.59236 -1.27803,-1.46687 -0.3278,-5.43266 l 0.87348,-3.64553 8.08142,-8.13787 c 8.88586,-8.94794 9.08434,-9.09723 11.79556,-8.8724 3.73212,0.3095 6.01482,4.3495 4.36904,7.73247 -0.33021,0.67874 -3.43733,3.98696 -8.41963,8.96455 l -7.8963,7.88882 -3.55277,0.90244 c -3.87988,0.98553 -4.07638,1.00949 -4.923,0.60018 z m 5.47195,-5.23756 c 0.70887,-0.19694 2.65253,-1.98733 8.26823,-7.61619 4.03783,-4.0473 7.34151,-7.55367 7.34151,-7.79195 0,-0.55818 -0.70738,-1.26478 -1.26618,-1.26478 -0.23904,0 -3.79575,3.36352 -7.90378,7.47448 -6.47389,6.4785 -7.49269,7.60669 -7.64571,8.46667 -0.19289,1.08398 -0.15172,1.10896 1.20593,0.73177 z"
       id="path7" /></g></svg>
