<?xml version="1.0" encoding="UTF-8" standalone="no"?>
<!-- Created with Inkscape (http://www.inkscape.org/) -->

<svg
   width="32.79924mm"
   height="32.711845mm"
   viewBox="0 0 32.79924 32.711845"
   version="1.1"
   id="svg1"
   inkscape:version="1.3.2 (091e20e, 2023-11-25, custom)"
   sodipodi:docname="ÄGD.svg"
   xml:space="preserve"
   xmlns:inkscape="http://www.inkscape.org/namespaces/inkscape"
   xmlns:sodipodi="http://sodipodi.sourceforge.net/DTD/sodipodi-0.dtd"
   xmlns="http://www.w3.org/2000/svg"
   xmlns:svg="http://www.w3.org/2000/svg"><sodipodi:namedview
     id="namedview1"
     pagecolor="#ffffff"
     bordercolor="#000000"
     borderopacity="0.25"
     inkscape:showpageshadow="2"
     inkscape:pageopacity="0.0"
     inkscape:pagecheckerboard="0"
     inkscape:deskcolor="#d1d1d1"
     inkscape:document-units="mm"
     inkscape:zoom="0.69219276"
     inkscape:cx="267.98893"
     inkscape:cy="452.90852"
     inkscape:window-width="1920"
     inkscape:window-height="991"
     inkscape:window-x="-9"
     inkscape:window-y="-9"
     inkscape:window-maximized="1"
     inkscape:current-layer="layer1"
     showgrid="false" /><defs
     id="defs1" /><g
     inkscape:label="Lager 1"
     inkscape:groupmode="layer"
     id="layer1"
     transform="translate(-51.712171,-136.66903)"><path
       style="fill:#261292;fill-opacity:1"
       d="m 63.760781,168.95435 c -8.767938,-2.59691 -13.752468,-11.25524 -11.515288,-20.00251 0.77225,-3.01948 1.93933,-5.00777 4.36837,-7.44218 1.58614,-1.58965 2.62042,-2.36852 4.104794,-3.09115 4.795898,-2.33476 9.980124,-2.33252 14.816666,0.006 2.702742,1.30703 5.860684,4.42955 7.207985,7.12713 3.16052,6.32803 2.00523,14.05529 -2.835929,18.96836 -1.86332,1.891 -4.079931,3.30381 -6.488723,4.13575 -2.38384,0.82333 -7.36555,0.97714 -9.657875,0.29819 z m 9.735909,-4.08167 c 4.695759,-2.23698 7.605615,-6.72147 7.588415,-11.69479 -0.01274,-3.68208 -1.266193,-6.71682 -3.83238,-9.27854 -5.085956,-5.07711 -13.178874,-5.07556 -18.252172,0.004 -2.623,2.62598 -3.83815,5.55909 -3.83815,9.26448 0,5.44469 3.47785,10.32415 8.703057,12.21049 1.515191,0.54699 2.135597,0.6208 4.658405,0.5542 2.73406,-0.0722 3.035388,-0.13637 4.972825,-1.05934 z m -9.549509,-7.69996 c -2.473267,-2.49774 -3.493108,-3.70774 -3.493108,-4.14445 0,-0.74717 6.384969,-7.33099 7.249956,-7.47574 0.305389,-0.0511 0.882674,0.0651 1.282857,0.25822 0.591786,0.2856 0.727604,0.52701 0.727604,1.29329 0,0.79413 -0.255998,1.20875 -1.629439,2.63904 l -1.629438,1.69689 h 4.14298 c 3.790202,0 4.188039,0.0451 4.672147,0.52917 0.707844,0.70784 0.667112,1.47361 -0.120266,2.26099 -0.6328,0.6328 -0.752871,0.64943 -4.68871,0.64943 h -4.039279 l 1.646002,1.66076 c 1.790349,1.80641 2.118324,2.85686 1.162148,3.72219 -1.044213,0.945 -1.623852,0.60602 -5.283454,-3.08979 z"
       id="path6" /></g></svg>
