<?xml version="1.0" encoding="UTF-8" standalone="no"?>
<!-- Created with Inkscape (http://www.inkscape.org/) -->

<svg
   width="130.72588mm"
   height="130.72588mm"
   viewBox="0 0 130.72588 130.72588"
   version="1.1"
   id="svg1"
   sodipodi:docname="logo.svg"
   inkscape:version="1.3.2 (091e20e, 2023-11-25, custom)"
   xmlns:inkscape="http://www.inkscape.org/namespaces/inkscape"
   xmlns:sodipodi="http://sodipodi.sourceforge.net/DTD/sodipodi-0.dtd"
   xmlns="http://www.w3.org/2000/svg"
   xmlns:svg="http://www.w3.org/2000/svg">
  <sodipodi:namedview
     id="namedview1"
     pagecolor="#ffffff"
     bordercolor="#000000"
     borderopacity="0.25"
     inkscape:showpageshadow="2"
     inkscape:pageopacity="0.0"
     inkscape:pagecheckerboard="0"
     inkscape:deskcolor="#d1d1d1"
     inkscape:document-units="mm"
     inkscape:zoom="1.1120055"
     inkscape:cx="125.44902"
     inkscape:cy="290.01655"
     inkscape:window-width="1920"
     inkscape:window-height="991"
     inkscape:window-x="-9"
     inkscape:window-y="-9"
     inkscape:window-maximized="1"
     inkscape:current-layer="layer1" />
  <defs
     id="defs1">
    <rect
       x="203.28766"
       y="207.37386"
       width="479.1051"
       height="540.39789"
       id="rect1" />
  </defs>
  <g
     inkscape:label="Lager 1"
     inkscape:groupmode="layer"
     id="layer1"
     transform="translate(-38.89566,-23.376152)">
    <circle
       style="fill:#fffbef;fill-opacity:1;stroke-width:0"
       id="path1"
       cx="104.2586"
       cy="88.73909"
       r="65.362938"
       inkscape:export-filename="logo.svg"
       inkscape:export-xdpi="96"
       inkscape:export-ydpi="96" />
    <g
       id="text1"
       style="font-size:64px;-inkscape-font-specification:sans-serif;text-align:center;white-space:pre;fill:#2600ff;stroke-width:0"
       transform="matrix(0.24509674,0,0,0.24509674,-4.3565955,5.1181355)"
       aria-label="THE&#10;tASK&#10;mANAGER">
      <path
         style="font-family:Monoton;-inkscape-font-specification:Monoton;stroke-width:0"
         d="m 374.37109,216.26219 v -2.25 h 33.75 v 2.25 z m 0,4.5 v -2.25 h 33.75 v 2.25 z m 0,4.5 v -2.25 h 33.75 v 2.25 h -9 v 40.5 h -2.25 v -40.5 h -2.25 v 40.5 h -2.25 v -40.5 h -2.25 v 40.5 h -2.25 v -40.5 h -2.25 v 40.5 h -2.25 v -40.5 z m 88.34375,-11.25 h 2.25 v 51.75 h -2.25 z m -49.5,0 h 2.25 v 51.75 h -2.25 z m 45,0 h 2.25 v 51.75 h -2.25 z m -4.5,0 h 2.25 v 51.75 h -2.25 z m -4.5,0 h 2.25 v 51.75 h -2.25 v -20.28125 h -20.25 v 20.28125 h -2.25 v -51.75 h 2.25 v 20.21875 h 20.25 z m -27,0 h 2.25 v 51.75 h -2.25 z m -4.5,0 h 2.25 v 51.75 h -2.25 z m 31.5,29.21875 v -2.25 h -20.25 v 2.25 z m 0,-4.5 v -2.25 h -20.25 v 2.25 z m 32.9375,27.03125 h -2.25 v -51.75 h 2.25 z m -4.5,0 h -2.25 v -51.75 h 2.25 z m -4.5,0 h -2.25 v -51.75 h 2.25 z m 13.5,-11.25 h 23.9375 v 2.25 h -23.9375 v 2.25 h 23.9375 v 2.25 h -23.9375 v 2.25 h 23.9375 v 2.25 h -26.1875 v -51.75 h 26.1875 v 2.25 h -23.9375 v 2.25 h 23.9375 v 2.25 h -23.9375 v 2.25 h 23.9375 v 2.25 h -23.9375 v 9 h 12.28125 v 2.25 h -12.28125 v 2.25 h 12.28125 v 2.25 h -12.28125 v 2.25 h 12.28125 v 2.25 h -12.28125 z"
         id="path2" />
      <path
         style="font-family:Monoton;-inkscape-font-specification:Monoton;stroke-width:0"
         d="m 356.98047,316.12196 h 2.25 v 32.53125 h -2.25 z m -9,-10.21875 v -2.25 h 33.75 v 2.25 z m 0,4.5 v -2.25 h 33.75 v 2.25 z m 0,4.5 v -2.25 h 33.75 v 2.25 z m 22.5,1.21875 h 2.25 v 32.53125 h -2.25 z m -4.5,0 h 2.25 v 32.53125 h -2.25 z m -4.5,0 h 2.25 v 32.53125 h -2.25 z m 47.53125,17.34375 0.90625,-2.25 h 7.6875 l 0.90625,2.25 z m -1.75,4.5 0.875,-2.25 h 11.21875 l 0.96875,2.25 z m -1.75,4.5 0.875,-2.25 h 14.75 l 0.9375,2.25 z m -18.28125,6.1875 h -2.4375 l 20.46875,-51.75 h 2.4375 l 20.4375,51.75 h -2.40625 l -19.25,-48.71875 z m 19.53125,-43.375 1.28125,2.875 -16,40.5 h -2.40625 z m 2.5,5.9375 1.1875,3.09375 -13.53125,34.34375 h -2.4375 z m 2.375,6.1875 1.1875,3.15625 -11.09375,28.09375 h -2.40625 z m 31.03125,31.25 h -2.4375 l -20.4375,-51.75 h 2.40625 z m -25.3125,-51.75 20.46875,51.75 h -2.40625 l -20.46875,-51.75 z m -4.84375,0 20.46875,51.75 h -2.4375 l -20.4375,-51.75 z m 55,20.25 h -3.78125 q -2.40625,0 -3.46875,-1.21875 -1.0625,-1.25 -1.0625,-3.28125 0,-4.5 6.71875,-4.5 6.3125,0 9.5,1.875 l -1.8125,1.375 q -2.1875,-1 -7.6875,-1 -2.6875,0 -3.625,0.59375 -0.90625,0.59375 -0.90625,1.65625 0,1.0625 0.5,1.65625 0.5,0.59375 1.84375,0.59375 h 3.875 q 4.21875,0 7.59375,1.4375 3.40625,1.4375 5.59375,3.9375 2.1875,2.46875 3.34375,5.71875 1.15625,3.21875 1.15625,6.90625 0,3 -0.84375,5.6875 -0.84375,2.6875 -2.5625,4.9375 -1.6875,2.25 -4.09375,3.90625 -2.375,1.625 -5.6875,2.53125 -3.28125,0.9375 -7.125,0.9375 -6.03125,0 -11.3125,-1.84375 -5.25,-1.8125 -8.75,-5.09375 l 1.8125,-1.34375 q 3.1875,2.875 7.96875,4.46875 4.8125,1.5625 10.28125,1.5625 4.28125,0 7.71875,-1.21875 3.46875,-1.25 5.6875,-3.40625 2.25,-2.15625 3.4375,-5 1.21875,-2.84375 1.21875,-6.125 0,-4.34375 -1.75,-7.84375 -1.75,-3.53125 -5.34375,-5.71875 -3.5625,-2.1875 -8.4375,-2.1875 z m -3.78125,2.25 h 3.5625 q 6.34375,0 9.90625,3.875 3.59375,3.875 3.59375,9.625 0,5.84375 -4.15625,9.6875 -4.15625,3.8125 -11.65625,3.8125 -5,0 -9.34375,-1.375 -4.34375,-1.375 -7.21875,-3.875 l 1.75,-1.40625 q 2.5625,2.09375 6.4375,3.25 3.90625,1.15625 8.375,1.15625 6.59375,0 10.0625,-3.15625 3.5,-3.15625 3.5,-8.09375 0,-4.875 -2.9375,-8.0625 -2.90625,-3.1875 -8.34375,-3.1875 h -3.53125 q -4.5625,0 -6.84375,-2.5 -2.28125,-2.5 -2.28125,-6.5 0,-4 2.8125,-6.5 2.84375,-2.5 8.5,-2.5 3.96875,0 7.375,0.9375 3.40625,0.90625 5.625,2.625 l -1.78125,1.375 q -3.90625,-2.6875 -11.21875,-2.6875 -4.71875,0 -6.90625,1.875 -2.15625,1.84375 -2.15625,4.875 0,3.0625 1.59375,4.90625 1.625,1.84375 5.28125,1.84375 z m 0,4.5 h 3.4375 q 4.5625,0 6.84375,2.53125 2.28125,2.53125 2.28125,6.46875 0,4 -2.84375,6.5 -2.8125,2.5 -8.46875,2.5 -3.96875,0 -7.40625,-0.90625 -3.40625,-0.9375 -5.625,-2.65625 l 1.78125,-1.375 q 3.90625,2.6875 11.25,2.6875 4.71875,0 6.875,-1.84375 2.1875,-1.875 2.1875,-4.90625 0,-3.03125 -1.625,-4.875 -1.625,-1.875 -5.28125,-1.875 h -3.40625 q -6.40625,0 -10.03125,-3.8125 -3.59375,-3.84375 -3.59375,-9.6875 0,-5.84375 4.15625,-9.65625 4.15625,-3.84375 11.65625,-3.84375 5,0 9.3125,1.375 4.34375,1.375 7.21875,3.875 l -1.75,1.40625 q -2.5625,-2.09375 -6.4375,-3.25 -3.875,-1.15625 -8.34375,-1.15625 -6.59375,0 -10.09375,3.15625 -3.46875,3.15625 -3.46875,8.09375 0,4.90625 2.9375,8.09375 2.9375,3.15625 8.4375,3.15625 z m 0,4.5 h 3.4375 q 2.40625,0 3.46875,1.25 1.0625,1.25 1.0625,3.25 0,4.5 -6.71875,4.5 -6.34375,0 -9.53125,-1.875 l 1.8125,-1.375 q 2.1875,1 7.71875,1 2.6875,0 3.59375,-0.59375 0.9375,-0.59375 0.9375,-1.65625 0,-1.03125 -0.53125,-1.625 -0.5,-0.625 -1.875,-0.625 h -3.375 q -4.3125,0 -7.8125,-1.40625 -3.46875,-1.40625 -5.71875,-3.875 -2.21875,-2.46875 -3.40625,-5.71875 -1.1875,-3.25 -1.1875,-7 0,-3 0.84375,-5.6875 0.84375,-2.6875 2.53125,-4.9375 1.71875,-2.25 4.09375,-3.875 2.40625,-1.65625 5.6875,-2.5625 3.3125,-0.9375 7.15625,-0.9375 6.03125,0 11.28125,1.84375 5.25,1.8125 8.75,5.09375 l -1.8125,1.34375 q -3.1875,-2.875 -7.96875,-4.4375 -4.78125,-1.59375 -10.25,-1.59375 -4.28125,0 -7.75,1.25 -3.4375,1.21875 -5.6875,3.375 -2.21875,2.15625 -3.4375,5 -1.1875,2.84375 -1.1875,6.125 0,4.40625 1.78125,7.9375 1.78125,3.53125 5.4375,5.6875 3.65625,2.125 8.65625,2.125 z m 42.28125,20.25 h -2.25 v -51.75 h 2.25 z m -4.5,0 h -2.25 v -51.75 h 2.25 z m -4.5,0 h -2.25 v -51.75 h 2.25 z m -4.5,0 h -2.25 v -51.75 h 2.25 z m 29.9375,-25.875 13.21875,-25.875 h 2.5 l -13.21875,25.875 13.21875,25.875 h -2.5 z m -5.03125,0 13.21875,-25.875 h 2.5 l -13.21875,25.875 13.21875,25.875 h -2.5 z m -5.03125,0 13.21875,-25.875 h 2.5 l -13.21875,25.875 13.21875,25.875 h -2.5 z m -5.0625,0 13.25,-25.875 h 2.5 l -13.25,25.875 13.25,25.875 h -2.5 z"
         id="path3" />
      <path
         style="font-family:Monoton;-inkscape-font-specification:Monoton;stroke-width:0"
         d="m 272.05859,403.41923 v 28.125 h -2.25 v -28.125 q 0,-0.90625 -0.3125,-1.53125 -0.28125,-0.65625 -0.75,-1 -0.46875,-0.34375 -1.25,-0.53125 -0.75,-0.21875 -1.46875,-0.25 -0.71875,-0.0625 -1.78125,-0.0625 -1.0625,0 -1.78125,0.0625 -0.71875,0.0312 -1.5,0.25 -0.75,0.1875 -1.21875,0.53125 -0.46875,0.34375 -0.78125,1 -0.28125,0.625 -0.28125,1.53125 v 28.125 h -2.25 v -28.125 q 0,-5.625 7.8125,-5.625 7.8125,0 7.8125,5.625 z m 4.5,0 v 28.125 h -2.25 v -28.125 q 0,-3.96875 -2.8125,-5.90625 -2.78125,-1.96875 -7.25,-1.96875 -4.46875,0 -7.28125,1.96875 -2.78125,1.9375 -2.78125,5.90625 v 28.125 h -2.25 v -28.125 q 0,-3.28125 1.6875,-5.625 1.6875,-2.34375 4.40625,-3.40625 2.75,-1.09375 6.21875,-1.09375 3.46875,0 6.1875,1.09375 2.75,1.0625 4.4375,3.40625 1.6875,2.34375 1.6875,5.625 z m 4.5,0 v 28.125 h -2.25 v -28.125 q 0,-2.9375 -1.15625,-5.3125 -1.125,-2.375 -3.125,-3.90625 -2,-1.53125 -4.625,-2.34375 -2.625,-0.8125 -5.65625,-0.8125 -3.03125,0 -5.65625,0.8125 -2.625,0.8125 -4.625,2.34375 -2,1.53125 -3.15625,3.90625 -1.125,2.375 -1.125,5.3125 v 28.125 h -2.25 v -28.125 q 0,-3.40625 1.3125,-6.1875 1.34375,-2.78125 3.625,-4.59375 2.28125,-1.84375 5.34375,-2.84375 3.0625,-1 6.53125,-1 3.46875,0 6.53125,1 3.0625,1 5.34375,2.84375 2.28125,1.8125 3.59375,4.59375 1.34375,2.78125 1.34375,6.1875 z m 4.5,28.125 h -2.25 v -28.125 q 0,-3.40625 -1.53125,-6.53125 -1.5,-3.125 -4.0625,-5.375 -2.5625,-2.28125 -6.09375,-3.625 -3.53125,-1.34375 -7.375,-1.34375 -5.28125,0 -9.59375,2 -4.28125,1.96875 -6.875,5.875 -2.59375,3.875 -2.59375,9 v 28.125 h -2.25 v -28.125 q 0,-4.3125 1.6875,-7.9375 1.6875,-3.625 4.5625,-6.0625 2.90625,-2.4375 6.78125,-3.78125 3.90625,-1.34375 8.28125,-1.34375 7.75,0 13.4375,3.90625 5.6875,-3.90625 13.4375,-3.90625 4.375,0 8.25,1.34375 3.90625,1.34375 6.78125,3.78125 2.90625,2.4375 4.59375,6.0625 1.6875,3.625 1.6875,7.9375 v 28.125 h -2.25 v -28.125 q 0,-5.09375 -2.59375,-8.96875 -2.59375,-3.90625 -6.90625,-5.90625 -4.28125,-2 -9.5625,-2 -6.625,0 -11.5625,3.125 0.71875,0.625 1.59375,1.625 4.28125,-2.5 9.96875,-2.5 3.46875,0 6.53125,1 3.0625,1 5.34375,2.84375 2.28125,1.8125 3.59375,4.59375 1.34375,2.78125 1.34375,6.1875 v 28.125 h -2.25 v -28.125 q 0,-2.9375 -1.15625,-5.3125 -1.125,-2.375 -3.125,-3.90625 -2,-1.53125 -4.625,-2.34375 -2.625,-0.8125 -5.65625,-0.8125 -4.96875,0 -8.59375,2.03125 0.5625,0.875 1.125,1.9375 3.0625,-1.71875 7.46875,-1.71875 3.46875,0 6.1875,1.09375 2.75,1.0625 4.4375,3.40625 1.6875,2.34375 1.6875,5.625 v 28.125 h -2.25 v -28.125 q 0,-3.96875 -2.8125,-5.90625 -2.78125,-1.96875 -7.25,-1.96875 -4.0625,0 -6.59375,1.5 0.40625,1.1875 0.625,2.25 1.96875,-1.5 5.96875,-1.5 7.8125,0 7.8125,5.625 v 28.125 h -2.25 v -28.125 q 0,-0.90625 -0.3125,-1.53125 -0.28125,-0.65625 -0.75,-1 -0.46875,-0.34375 -1.25,-0.53125 -0.75,-0.21875 -1.46875,-0.25 -0.71875,-0.0625 -1.78125,-0.0625 -1.0625,0 -1.78125,0.0625 -0.71875,0.0312 -1.5,0.25 -0.75,0.1875 -1.21875,0.53125 -0.46875,0.34375 -0.78125,1 -0.28125,0.625 -0.28125,1.53125 z m 54.84375,-15.1875 0.90625,-2.25 h 7.6875 l 0.90625,2.25 z m -1.75,4.5 0.875,-2.25 h 11.21875 l 0.96875,2.25 z m -1.75,4.5 0.875,-2.25 h 14.75 l 0.9375,2.25 z m -18.28125,6.1875 h -2.4375 l 20.46875,-51.75 h 2.4375 l 20.4375,51.75 h -2.40625 l -19.25,-48.71875 z m 19.53125,-43.375 1.28125,2.875 -16,40.5 h -2.40625 z m 2.5,5.9375 1.1875,3.09375 -13.53125,34.34375 h -2.4375 z m 2.375,6.1875 1.1875,3.15625 -11.09375,28.09375 h -2.40625 z m 31.03125,31.25 h -2.4375 l -20.4375,-51.75 h 2.40625 z m -25.3125,-51.75 20.46875,51.75 h -2.40625 l -20.46875,-51.75 z m -4.84375,0 20.46875,51.75 h -2.4375 l -20.4375,-51.75 z m 70.84375,26.84375 -2.25,-3.71875 v -23.125 h 2.25 z m 4.5,7.375 -2.25,-3.78125 v -30.4375 h 2.25 z m 4.5,7.46875 -2.25,-3.8125 v -37.875 h 2.25 z m -32.25,-16.78125 2.25,3.71875 v 23.125 h -2.25 z m -4.5,-7.375 2.25,3.78125 v 30.4375 h -2.25 z m -4.5,-7.46875 2.25,3.8125 v 37.875 h -2.25 z m 0.78125,-10.0625 h 2.625 l 31.8125,51.75 h -2.625 z m 5.3125,0 h 2.65625 l 31.78125,51.75 h -2.6875 z m 5.28125,0 h 2.625 l 29.5,48.09375 v -48.09375 h 2.25 v 51.75 q 0,0 -2.65625,0 z m -13.625,3.65625 v 48.09375 h -2.25 v -51.75 q 0,0 2.6875,0 l 31.71875,51.75 h -2.59375 z m 76.28125,32.90625 0.90625,-2.25 h 7.6875 l 0.90625,2.25 z m -1.75,4.5 0.875,-2.25 h 11.21875 l 0.96875,2.25 z m -1.75,4.5 0.875,-2.25 h 14.75 l 0.9375,2.25 z m -18.28125,6.1875 h -2.4375 l 20.46875,-51.75 h 2.4375 l 20.4375,51.75 h -2.40625 l -19.25,-48.71875 z m 19.53125,-43.375 1.28125,2.875 -16,40.5 h -2.40625 z m 2.5,5.9375 1.1875,3.09375 -13.53125,34.34375 h -2.4375 z m 2.375,6.1875 1.1875,3.15625 -11.09375,28.09375 h -2.40625 z m 31.03125,31.25 h -2.4375 l -20.4375,-51.75 h 2.40625 z m -25.3125,-51.75 20.46875,51.75 h -2.40625 l -20.46875,-51.75 z m -4.84375,0 20.46875,51.75 h -2.4375 l -20.4375,-51.75 z m 72.15625,24.71875 h 2.25 v 27.03125 h -2.25 z m 9,0 h 2.25 v 27.03125 h -2.25 z m -4.5,0 h 2.25 v 27.03125 h -2.25 z m -6.75,0 v 27.03125 q -5.9375,2.25 -12.3125,2.25 -5.53125,0 -10.59375,-2.03125 -5.0625,-2.03125 -8.90625,-5.625 -3.84375,-3.625 -6.15625,-8.9375 -2.28125,-5.34375 -2.28125,-11.53125 0,-5.71875 2.21875,-10.90625 2.25,-5.21875 6,-8.96875 3.78125,-3.78125 8.96875,-6 5.21875,-2.25 10.9375,-2.25 7.125,0 13.25,3.3125 6.125,3.3125 10,9 l -1.875,1.21875 q -3.5625,-5.21875 -9.21875,-8.25 -5.625,-3.03125 -12.15625,-3.03125 -5.25,0 -10.0625,2.0625 -4.78125,2.03125 -8.25,5.5 -3.46875,3.46875 -5.53125,8.28125 -2.03125,4.78125 -2.03125,10.03125 0,5.65625 2.09375,10.5625 2.125,4.90625 5.625,8.21875 3.53125,3.3125 8.1875,5.21875 4.65625,1.875 9.6875,1.875 5.28125,0 10.15625,-1.65625 v -2.15625 q -4.65625,1.5625 -9.78125,1.5625 -3.71875,0 -7.25,-1.03125 -3.5,-1.0625 -6.5,-3.09375 -2.96875,-2.0625 -5.21875,-4.875 -2.21875,-2.84375 -3.5,-6.59375 -1.25,-3.78125 -1.25,-8.03125 0,-6.40625 3.15625,-11.84375 3.1875,-5.4375 8.625,-8.59375 5.4375,-3.1875 11.84375,-3.1875 6,0 11.15625,2.8125 5.15625,2.78125 8.40625,7.5625 l -1.875,1.21875 q -2.9375,-4.3125 -7.625,-6.8125 -4.65625,-2.53125 -10.0625,-2.53125 -4.34375,0 -8.3125,1.6875 -3.96875,1.6875 -6.84375,4.5625 -2.84375,2.84375 -4.53125,6.8125 -1.6875,3.96875 -1.6875,8.3125 0,3.90625 1.125,7.34375 1.15625,3.40625 3.15625,5.96875 2.03125,2.53125 4.71875,4.375 2.6875,1.8125 5.84375,2.75 3.1875,0.9375 6.53125,0.9375 5.1875,0 9.875,-1.75 v -2.25 q -4.625,1.78125 -9.65625,1.78125 -3.8125,0 -7.28125,-1.28125 -3.46875,-1.3125 -6.1875,-3.6875 -2.6875,-2.375 -4.28125,-6.0625 -1.59375,-3.6875 -1.59375,-8.125 0,-5.1875 2.5625,-9.59375 2.5625,-4.40625 6.96875,-6.96875 4.40625,-2.5625 9.59375,-2.5625 4.84375,0 9,2.25 4.1875,2.25 6.8125,6.125 l -1.875,1.21875 q -2.3125,-3.375 -6,-5.34375 -3.65625,-2 -7.9375,-2 -4.59375,0 -8.46875,2.28125 -3.875,2.25 -6.15625,6.125 -2.25,3.875 -2.25,8.46875 0,3.1875 0.90625,5.9375 0.90625,2.75 2.5,4.75 1.59375,2 3.71875,3.40625 2.15625,1.40625 4.625,2.125 2.46875,0.6875 5.125,0.6875 5.28125,0 9.875,-2.09375 v -2.15625 q -4.4375,1.96875 -9.59375,1.96875 -2.96875,0 -5.59375,-0.90625 -2.625,-0.90625 -4.75,-2.65625 -2.09375,-1.75 -3.34375,-4.59375 -1.21875,-2.875 -1.21875,-6.46875 0,-2.96875 1.15625,-5.65625 1.15625,-2.71875 3.125,-4.6875 1.96875,-1.96875 4.65625,-3.125 2.71875,-1.15625 5.6875,-1.15625 3.71875,0 6.90625,1.75 3.1875,1.71875 5.1875,4.6875 l -1.84375,1.21875 q -1.6875,-2.5 -4.40625,-3.9375 -2.6875,-1.46875 -5.84375,-1.46875 -5.125,0 -8.75,3.625 -3.625,3.625 -3.625,8.75 0,3.15625 1.03125,5.59375 1.03125,2.40625 2.8125,3.875 1.8125,1.4375 4,2.1875 2.21875,0.71875 4.75,0.71875 5.1875,0 9.65625,-2.15625 v -11.375 z m 30.28125,27.03125 h -2.25 v -51.75 h 2.25 z m -4.5,0 h -2.25 v -51.75 h 2.25 z m -4.5,0 h -2.25 v -51.75 h 2.25 z m 13.5,-11.25 h 23.9375 v 2.25 h -23.9375 v 2.25 h 23.9375 v 2.25 h -23.9375 v 2.25 h 23.9375 v 2.25 h -26.1875 v -51.75 h 26.1875 v 2.25 h -23.9375 v 2.25 h 23.9375 v 2.25 h -23.9375 v 2.25 h 23.9375 v 2.25 h -23.9375 v 9 h 12.28125 v 2.25 h -12.28125 v 2.25 h 12.28125 v 2.25 h -12.28125 v 2.25 h 12.28125 v 2.25 h -12.28125 z m 46.46875,-14.5 h 13.5625 q 3.09375,0 5.21875,-2 2.15625,-2 2.15625,-5.6875 0,-2.71875 -2.25,-4.875 -2.25,-2.1875 -5.125,-2.1875 h -19.3125 v 40.5 h -2.25 v -42.75 h 21.5625 q 3.8125,0 6.71875,2.84375 2.90625,2.8125 2.90625,6.46875 0,4.5 -2.8125,7.21875 -2.8125,2.71875 -6.8125,2.71875 h -13.5625 z m 0,4.5 h 13.5625 q 4.875,0 8.375,-3.40625 3.5,-3.4375 3.5,-8.78125 0,-4.59375 -3.59375,-8.0625 -3.5625,-3.5 -8.28125,-3.5 h -23.8125 v 45 h -2.25 v -47.25 h 26.0625 q 3.71875,0 6.96875,1.90625 3.28125,1.90625 5.21875,5.125 1.9375,3.1875 1.9375,6.78125 0,6.15625 -4.1875,10.3125 -4.15625,4.125 -9.9375,4.125 h -13.5625 z m 0,4.5 h 13.5625 q 4.375,0 8.125,-2.15625 3.75,-2.15625 6,-6 2.25,-3.875 2.25,-8.53125 0,-4.21875 -2.25,-7.90625 -2.21875,-3.71875 -6,-5.9375 -3.78125,-2.21875 -8.125,-2.21875 h -28.3125 v 49.5 h -2.25 v -51.75 h 30.5625 q 4.90625,0 9.21875,2.53125 4.3125,2.5 6.84375,6.75 2.5625,4.21875 2.5625,9.03125 0,5.5625 -2.40625,9.78125 -2.375,4.21875 -6.46875,6.59375 l 5.8125,17.0625 h -2.375 l -5.5625,-16 q -1.25,0.5 -1.90625,0.6875 l 5.21875,15.3125 h -2.375 l -5.09375,-14.78125 q -0.28125,0.0625 -2,0.21875 l 4.84375,14.5625 h -2.375 l -4.78125,-14.5 h -2.03125 l 4.5625,14.5 h -2.375 l -4.59375,-14.5 h -8.28125 z m -1.25,16.75 h -2.25 v -38.25 h 17.0625 q 2.09375,0 3.59375,1.4375 1.53125,1.40625 1.53125,3.375 0,5.4375 -5.125,5.4375 h -13.5625 v -2.25 h 13.5625 q 1.34375,0 2.09375,-0.6875 0.78125,-0.71875 0.78125,-2.5 0,-1.09375 -0.84375,-1.8125 -0.8125,-0.75 -2.03125,-0.75 h -14.8125 z"
         id="path4" />
    </g>
  </g>
</svg>
